# xmcd
#
# Track frame offsets: 
#        150
#        19364
#        35573
#        55593
#
# Disc length: 965 seconds
#
# Revision: 1
# Processed by: cddbd v1.5.2PL0 Copyright (c) Steve Scherf et al.
# Submitted via: ExactAudioCopy v0.95b4
#
DISCID=2c03c304
DTITLE=เดียร์ ศศิธร - หัวใจนักสู้
DYEAR=2008
DGENRE=Country
TTITLE0=หัวใจนักสู้
TTITLE1=บ่าวนักเรียนใหญ่
TTITLE2=ขอมือคนโสด
TTITLE3=กล่อม
EXTD=
EXTT0=
EXTT1=
EXTT2=
EXTT3=
PLAYORDER=
